<?xml version="1.0" encoding="UTF-8" standalone="no"?>
<!-- Generator: Adobe Illustrator 24.3.0, SVG Export Plug-In . SVG Version: 6.00 Build 0) Modified manually by Zandario. Modifications for banner use by Bhijn. Font is Pirulen Regular, by Typodermic Fonts. Font information can be found at: https://typodermicfonts.com/license/ -->

<svg
   aria-hidden="true"
   focusable="false"
   data-prefix="fas"
   data-icon="crow"
   class="svg-inline--fa fa-crow fa-w-20"
   role="img"
   viewBox="0 0 393.72799 196.864"
   width="393.728"
   height="196.864"
   version="1.1"
   id="svg96"
   sodipodi:docname="logo.svg"
   inkscape:export-xdpi="77.699997"
   inkscape:export-ydpi="77.699997"
   xmlns:inkscape="http://www.inkscape.org/namespaces/inkscape"
   xmlns:sodipodi="http://sodipodi.sourceforge.net/DTD/sodipodi-0.dtd"
   xmlns="http://www.w3.org/2000/svg"
   xmlns:svg="http://www.w3.org/2000/svg">
  <defs
     id="defs100">
    <inkscape:path-effect
       effect="bool_op"
       operand-path=""
       id="path-effect538"
       is_visible="true"
       lpeversion="1"
       operation="diff"
       swap-operands="false"
       filltype-this="from-curve"
       filter=""
       filltype-operand="from-curve" />
    <inkscape:path-effect
       effect="bool_op"
       operand-path=""
       id="path-effect536"
       is_visible="true"
       lpeversion="1"
       operation="union"
       swap-operands="false"
       filltype-this="from-curve"
       filter=""
       filltype-operand="from-curve" />
    <filter
       id="selectable_hidder_filter"
       width="1"
       height="1"
       x="0"
       y="0"
       style="color-interpolation-filters:sRGB;"
       inkscape:label="LPE boolean visibility">
      <feComposite
         id="boolops_hidder_primitive"
         result="composite1"
         operator="arithmetic"
         in2="SourceGraphic"
         in="BackgroundImage" />
    </filter>
    <inkscape:path-effect
       effect="bool_op"
       operand-path=""
       id="path-effect532"
       is_visible="true"
       lpeversion="1"
       operation="symdiff"
       swap-operands="false"
       filltype-this="from-curve"
       filter=""
       filltype-operand="from-curve" />
    <rect
       x="201.96003"
       y="95.876334"
       width="200.86639"
       height="70.722466"
       id="rect417" />
    <rect
       x="191.5573"
       y="26.054162"
       width="213.98457"
       height="99.031974"
       id="rect434" />
  </defs>
  <sodipodi:namedview
     id="namedview98"
     pagecolor="#505050"
     bordercolor="#eeeeee"
     borderopacity="1"
     inkscape:showpageshadow="0"
     inkscape:pageopacity="0"
     inkscape:pagecheckerboard="true"
     inkscape:deskcolor="#505050"
     showgrid="false"
     inkscape:zoom="3.8905377"
     inkscape:cx="133.5291"
     inkscape:cy="113.60898"
     inkscape:window-width="1920"
     inkscape:window-height="1057"
     inkscape:window-x="-8"
     inkscape:window-y="-8"
     inkscape:window-maximized="1"
     inkscape:current-layer="svg96" />
  <style
     type="text/css"
     id="style52">
	.st0{fill:#00132c;}
	.st1{fill:#376BA8;}
	.st2{fill:#104264;}
	.st3{fill:#585857;}
	.st4{fill:#F6F6F6;}
</style>
  <g
     id="g94">
    <g
       id="g92">
      <g
         id="g66">
        <path
           class="st1"
           d="m 31.149548,116.77726 c -0.05365,-0.20756 -0.234969,-0.35725 -0.448946,-0.37035 l -6.931889,-0.42395 c -0.155855,-0.01 -0.30706,0.055 -0.407982,0.17418 -0.100923,0.11915 -0.139749,0.27896 -0.104744,0.43113 1.984442,8.6269 5.398752,16.98712 10.249643,24.7085 0.08298,0.13208 0.223355,0.2173 0.378815,0.23004 0.155457,0.0128 0.307991,-0.0484 0.411343,-0.16525 l 4.598922,-5.19846 c 0.14238,-0.16093 0.16454,-0.39505 0.05516,-0.58 -3.516208,-5.9456 -6.113868,-12.28143 -7.800319,-18.80584 z"
           id="path54"
           style="fill:#a83746;fill-opacity:1" />
        <path
           class="st1"
           d="m 30.700762,80.432648 c 0.214172,-0.01311 0.395214,-0.162598 0.448913,-0.370339 1.686446,-6.524154 4.28398,-12.859733 7.800059,-18.805076 0.109276,-0.184773 0.08708,-0.419224 -0.05516,-0.580002 l -4.598919,-5.198452 c -0.103371,-0.116848 -0.255771,-0.178112 -0.411259,-0.165363 -0.155487,0.01275 -0.295909,0.09804 -0.378898,0.230144 -4.850758,7.721245 -8.265059,16.081432 -10.249502,24.708195 -0.035,0.152153 0.0039,0.311882 0.104765,0.431007 0.100914,0.119133 0.252159,0.183846 0.407993,0.174301 z"
           id="path56"
           style="fill:#a83746;fill-opacity:1" />
        <path
           class="st1"
           d="m 83.897797,169.60458 c -0.01311,-0.21417 -0.162598,-0.39521 -0.370339,-0.44891 -6.524032,-1.68645 -12.859733,-4.2841 -18.805084,-7.8002 -0.184769,-0.10927 -0.41922,-0.0871 -0.580002,0.0552 l -5.198692,4.59892 c -0.116848,0.10338 -0.17812,0.25579 -0.165375,0.41127 0.01275,0.15549 0.09804,0.29592 0.230145,0.37891 7.721363,4.85087 16.081447,8.26518 24.708446,10.24974 0.152153,0.035 0.311882,-0.004 0.431015,-0.10477 0.119126,-0.1009 0.183838,-0.25215 0.174301,-0.40799 z"
           id="path58"
           style="fill:#a83746;fill-opacity:1" />
        <path
           class="st1"
           d="m 139.62904,161.41023 c -0.16095,-0.14238 -0.39505,-0.16452 -0.58,-0.0551 -5.94548,3.51634 -12.2813,6.11412 -18.80559,7.80058 -0.20755,0.0537 -0.35725,0.23497 -0.37033,0.44894 l -0.42396,6.93201 c -0.01,0.15585 0.055,0.30705 0.17418,0.40798 0.11915,0.10093 0.27897,0.13975 0.43113,0.10475 8.62702,-1.98468 16.98713,-5.39901 24.7085,-10.25002 0.13208,-0.083 0.21729,-0.22336 0.23004,-0.37881 0.0127,-0.15547 -0.0485,-0.308 -0.16528,-0.41135 z"
           id="path60"
           style="fill:#a83746;fill-opacity:1" />
        <path
           class="st1"
           d="m 119.88775,27.474722 c 0.004,0.07184 0.0547,0.132505 0.12439,0.150291 6.68118,1.703806 13.1675,4.36192 19.24259,7.982077 0.0619,0.03686 0.14053,0.02954 0.19446,-0.01817 l 5.70704,-5.048982 c 0.039,-0.03447 0.0595,-0.08525 0.0554,-0.137102 -0.004,-0.05186 -0.0324,-0.09878 -0.0762,-0.126698 -7.95267,-5.05761 -16.59306,-8.582682 -25.51143,-10.583231 -0.0508,-0.01139 -0.10399,0.0018 -0.14361,0.03553 -0.0396,0.03375 -0.0611,0.0842 -0.058,0.136164 z"
           id="path62"
           style="fill:#a83746;fill-opacity:1" />
        <path
           class="st1"
           d="m 64.32222,35.588532 c 0.05398,0.04776 0.132545,0.05506 0.194458,0.01817 6.074959,-3.619902 12.56102,-6.277886 19.24208,-7.98169 0.06967,-0.01777 0.119996,-0.07852 0.12439,-0.15028 l 0.465935,-7.61025 c 0.0032,-0.05197 -0.01828,-0.102413 -0.05791,-0.136177 -0.03964,-0.03376 -0.09287,-0.04692 -0.143677,-0.03552 -8.91835,2.000422 -17.558754,5.525492 -25.511413,10.58297 -0.04389,0.02791 -0.0721,0.07482 -0.07621,0.126667 -0.0041,0.05185 0.01635,0.102671 0.0553,0.137135 z"
           id="path64"
           style="fill:#a83746;fill-opacity:1" />
      </g>
      <g
         id="g74">
        <path
           class="st2"
           d="m 115.47849,28.962301 c 0.15034,0.02926 0.30574,-0.01276 0.42092,-0.113714 0.11519,-0.100948 0.17745,-0.249607 0.16809,-0.402487 l -1.03334,-16.887478 c -0.0143,-0.23441 -0.19091,-0.425582 -0.42334,-0.459188 -8.45986,-1.223117 -16.97578,-1.2253095 -25.450938,10e-7 -0.231964,0.03354 -0.40902,0.22525 -0.42334,0.459189 l -1.033272,16.88748 c -0.0094,0.152933 0.05263,0.301571 0.16787,0.402555 0.115234,0.100987 0.270744,0.142909 0.421142,0.113642 8.939652,-1.739569 18.233248,-1.742157 27.186208,0 z"
           id="path68"
           style="fill:#641025;fill-opacity:1" />
        <path
           class="st2"
           d="m 101.88535,169.18304 c -4.649495,0 -9.193944,-0.44929 -13.593068,-1.30531 -0.150345,-0.0293 -0.305733,0.0128 -0.420921,0.11371 -0.115196,0.10095 -0.177445,0.2496 -0.168091,0.40248 l 1.033272,16.88748 c 0.01434,0.23441 0.19091,0.42559 0.42334,0.4592 8.459861,1.2231 16.975788,1.22533 25.450938,0 0.23197,-0.0335 0.40902,-0.22525 0.42334,-0.4592 l 1.03334,-16.88746 c 0.009,-0.15294 -0.0526,-0.30158 -0.16786,-0.40256 -0.11524,-0.101 -0.27076,-0.14292 -0.42115,-0.11365 -4.39913,0.85602 -8.94365,1.30531 -13.59314,1.30531 z"
           id="path70"
           style="fill:#641025;fill-opacity:1" />
        <path
           class="st2"
           d="m 31.122225,98.419907 c 0,-4.649491 0.449344,-9.19394 1.305376,-13.593064 0.02926,-0.150345 -0.01276,-0.305732 -0.113712,-0.420929 -0.100949,-0.115188 -0.249608,-0.177444 -0.402487,-0.168083 l -16.887478,1.03334 c -0.23441,0.01434 -0.425583,0.190903 -0.459188,0.42334 -1.223098,8.459725 -1.225309,16.975849 0,25.450869 0.03354,0.23196 0.22525,0.40903 0.459188,0.42334 l 16.887478,1.03335 c 0.152937,0.009 0.301573,-0.0526 0.402559,-0.16788 0.100987,-0.11523 0.14291,-0.27075 0.11364,-0.42114 -0.856032,-4.39913 -1.305376,-8.94358 -1.305376,-13.593143 z"
           id="path72"
           style="fill:#641025;fill-opacity:1" />
      </g>
      <path
         class="st2"
         d="m 159.18921,135.57838 -3.15656,-3.56813 c -0.10325,-0.11673 -0.25544,-0.17799 -0.41076,-0.16542 -0.15534,0.0126 -0.29572,0.0976 -0.37888,0.22937 -2.45311,3.88765 -5.35699,7.57181 -8.74435,10.95917 -24.63917,24.63916 -64.587397,24.63916 -89.226558,0 -24.639293,-24.63929 -24.639293,-64.587386 0,-89.226676 24.639161,-24.639162 64.587388,-24.639162 89.226558,0 3.49516,3.495171 6.47558,7.306328 8.97708,11.330841 0.0276,0.04443 0.0746,0.07319 0.12672,0.07758 0.0521,0.0044 0.10332,-0.01607 0.13797,-0.05524 L 171.25955,47.61794 c 0.0519,-0.0587 0.0555,-0.145447 0.009,-0.208359 -1.50206,-2.021484 -3.1115,-3.987564 -4.8071,-5.904182 -0.0303,-0.0342 -0.0733,-0.05437 -0.11894,-0.05579 -0.0456,-0.0014 -0.09,0.01601 -0.12225,0.0483 l -5.72728,5.727288 c -0.0621,0.06205 -0.16146,0.06484 -0.22702,0.0065 -1.26036,-1.121178 -2.50293,-2.272579 -3.71115,-3.480804 -1.20823,-1.208222 -2.35976,-2.450913 -3.48095,-3.711289 -0.0582,-0.06547 -0.0555,-0.165058 0.007,-0.22702 l 5.72742,-5.727284 c 0.0323,-0.03231 0.0498,-0.07654 0.0484,-0.122215 -0.001,-0.04567 -0.0217,-0.0887 -0.0559,-0.118984 -1.91663,-1.695595 -3.88271,-3.304901 -5.90431,-4.806957 -0.0628,-0.04665 -0.14978,-0.04307 -0.20836,0.0088 l -13.54947,11.986912 c -0.0557,0.04927 -0.13719,0.0553 -0.19963,0.0149 -22.47942,-14.548635 -51.626436,-14.548635 -74.105874,0 -0.06233,0.04034 -0.144013,0.0343 -0.199631,-0.0149 L 51.284107,29.223534 C 51.10849,29.06817 50.84763,29.057079 50.659885,29.19755 c -1.853405,1.386738 -3.660144,2.863348 -5.424907,4.413576 -0.102806,0.09031 -0.163582,0.21915 -0.168068,0.355919 -0.0045,0.136764 0.04762,0.269611 0.144386,0.366371 l 5.259163,5.259049 c 0.185616,0.185611 0.194256,0.484016 0.01928,0.679691 -1.055771,1.180694 -2.139694,2.344906 -3.273548,3.47876 -1.133857,1.133857 -2.297958,2.21767 -3.478634,3.273426 -0.195938,0.175205 -0.493827,0.166576 -0.679687,-0.01928 L 37.798821,41.74601 c -0.09682,-0.09682 -0.22942,-0.149212 -0.366269,-0.144726 -0.136852,0.0045 -0.265644,0.06554 -0.35601,0.168411 -1.550243,1.76476 -3.026951,3.571484 -4.413696,5.424778 -0.140766,0.188122 -0.129708,0.448258 0.02597,0.624234 l 11.644138,13.161995 c 0.146858,0.166004 0.165283,0.408828 0.04554,0.59534 -14.369106,22.381317 -14.369106,51.306668 0,73.687978 0.119576,0.18625 0.101113,0.42958 -0.04554,0.59534 l -11.644165,13.16203 c -0.155346,0.1756 -0.166454,0.43642 -0.02602,0.62416 1.477719,1.9756 2.943234,3.7508 4.413773,5.42482 0.09031,0.1028 0.219147,0.16358 0.355911,0.16806 0.136765,0.004 0.269608,-0.0476 0.366368,-0.14437 5.43148,-5.43148 5.446582,-5.71842 5.938739,-5.27833 1.180676,1.05576 2.344777,2.13956 3.478634,3.27343 1.133854,1.13385 2.217778,2.29806 3.273548,3.47876 0.175209,0.19594 0.166581,0.49383 -0.01928,0.67968 l -5.259163,5.25905 c -0.09682,0.0968 -0.149216,0.22942 -0.144729,0.36627 0.0045,0.13686 0.06554,0.26566 0.168411,0.35602 1.764763,1.55023 3.571503,3.02684 5.424908,4.41358 0.188121,0.14076 0.448249,0.1297 0.624221,-0.026 l 13.161869,-11.64401 c 0.166001,-0.14687 0.408829,-0.16528 0.595345,-0.0455 22.381187,14.36911 51.306916,14.36911 73.688106,0 0.18625,-0.11957 0.42958,-0.1011 0.59535,0.0455 l 13.16187,11.64401 c 0.17561,0.15537 0.43648,0.16646 0.62422,0.026 1.85341,-1.38674 3.66014,-2.86335 5.4249,-4.41358 0.10281,-0.0903 0.16359,-0.21914 0.16807,-0.35591 0.004,-0.13678 -0.0476,-0.26962 -0.14438,-0.36638 l -5.25917,-5.25905 c -0.1856,-0.1856 -0.19426,-0.48402 -0.0193,-0.67968 1.05577,-1.1807 2.13969,-2.34491 3.27356,-3.47876 1.13385,-1.13387 2.29795,-2.21767 3.47862,-3.27343 0.19594,-0.17521 0.49383,-0.16658 0.67969,0.0193 l 5.25904,5.25905 c 0.0968,0.0968 0.22944,0.14921 0.36628,0.14472 0.13685,-0.004 0.26565,-0.0655 0.35601,-0.16841 1.55025,-1.76475 3.02695,-3.57148 4.4137,-5.42477 0.14076,-0.18813 0.1297,-0.44826 -0.026,-0.62424 z"
         id="path76"
         style="fill:#641025;fill-opacity:1" />
      <path
         class="st3"
         d="m 136.66357,96.96402 c 0.0109,0.265106 0.22892,0.474663 0.49425,0.474663 h 18.52217 c 0.13365,0 0.26161,-0.05408 0.35483,-0.149857 0.0932,-0.09578 0.14395,-0.225235 0.14026,-0.358841 -0.055,-1.990425 -0.21471,-3.954361 -0.47702,-5.886253 -0.0317,-0.233361 -0.22281,-0.411217 -0.45778,-0.426812 l -9.19104,-0.609901 c -0.22331,-0.01482 -0.40831,-0.177315 -0.45229,-0.396759 -1.1298,-5.637123 -3.31187,-10.8899 -6.34903,-15.541115 -0.12126,-0.185714 -0.10432,-0.429756 0.0418,-0.596626 l 6.08631,-6.951462 c 0.1542,-0.176117 0.16369,-0.435173 0.0234,-0.622536 -3.03277,-4.049366 -6.57611,-7.626827 -10.67808,-10.745361 -0.18703,-0.142193 -0.44859,-0.133552 -0.62537,0.02122 l -6.91759,6.056706 c -0.16838,0.147427 -0.41407,0.163334 -0.60034,0.03928 -4.6283,-3.082462 -9.86553,-5.31913 -15.49258,-6.49926 -0.21712,-0.04553 -0.37776,-0.230087 -0.39244,-0.451439 L 110.082,45.111633 c -0.0155,-0.23368 -0.19214,-0.423641 -0.42398,-0.456772 -1.9466,-0.278183 -3.9276,-0.448375 -5.93497,-0.514751 -0.13411,-0.0044 -0.26426,0.04576 -0.36067,0.139084 -0.0964,0.09333 -0.15072,0.22179 -0.15072,0.355968 v 18.525891 c 0,0.263786 0.20644,0.480568 0.46988,0.493973 17.91168,0.911251 32.24221,15.35255 32.98203,33.308994 z M 103.68155,133.185 c -0.26312,0.0134 -0.46989,0.23053 -0.46989,0.49397 v 18.52582 c 0,0.13421 0.0545,0.26266 0.15101,0.35596 0.0965,0.0933 0.22678,0.14366 0.36092,0.13908 1.87125,-0.0639 3.71882,-0.22015 5.53802,-0.46716 0.23335,-0.0317 0.41122,-0.2228 0.42681,-0.45778 l 0.6099,-9.19084 c 0.0148,-0.22332 0.17732,-0.4083 0.39676,-0.45229 5.63707,-1.12978 10.88979,-3.3121 15.54112,-6.34921 0.18571,-0.12126 0.42975,-0.10434 0.59662,0.0418 l 6.95156,6.08641 c 0.17613,0.1542 0.43521,0.16369 0.62256,0.0234 3.97087,-2.97432 7.5671,-6.49784 10.74524,-10.67812 0.14219,-0.18703 0.13356,-0.44859 -0.0212,-0.62536 l -6.0566,-6.9176 c -0.14743,-0.16837 -0.16333,-0.41407 -0.0393,-0.60033 3.08231,-4.6283 5.31903,-9.86548 6.49916,-15.49266 0.0455,-0.21711 0.23009,-0.37774 0.45143,-0.39244 l 9.20764,-0.61099 c 0.23313,-0.0155 0.42411,-0.1919 0.45726,-0.42318 0.24434,-1.70405 0.41042,-3.43332 0.49327,-5.18441 0.006,-0.13526 -0.0429,-0.26724 -0.13639,-0.3652 -0.0935,-0.098 -0.22306,-0.15322 -0.35848,-0.15322 h -18.54748 c -0.25983,0 -0.47461,0.20036 -0.49323,0.45951 -1.25427,17.45601 -15.37315,31.34194 -32.92671,32.2349 z M 93.472458,54.255974 c -0.01482,0.223316 -0.177315,0.408306 -0.396759,0.452289 -5.637123,1.129826 -10.889794,3.312104 -15.541115,6.349274 -0.185715,0.121265 -0.429756,0.104332 -0.596626,-0.04178 L 69.986404,54.92929 c -0.176124,-0.154206 -0.435211,-0.163697 -0.622566,-0.02336 -3.963455,2.968846 -7.560966,6.489872 -10.745231,10.678101 -0.142193,0.187035 -0.13356,0.448601 0.02121,0.625374 l 6.056545,6.917587 c 0.147415,0.168381 0.163322,0.41407 0.03928,0.600342 -3.082295,4.628296 -5.318962,9.865524 -6.499092,15.492523 -0.04553,0.217117 -0.230087,0.377754 -0.451435,0.392441 l -9.208168,0.611038 c -0.233673,0.0155 -0.423634,0.192131 -0.456768,0.423958 -0.294304,2.058967 -0.467797,4.156372 -0.524632,6.283127 -0.0036,0.133575 0.04701,0.262924 0.140255,0.358642 0.09324,0.09572 0.221218,0.149613 0.354843,0.149613 h 18.522324 c 0.265602,0 0.483315,-0.209275 0.494255,-0.474663 0.734406,-17.825379 14.859757,-32.193344 32.588173,-33.293885 0.260796,-0.01619 0.464363,-0.232299 0.464363,-0.493598 V 44.646606 c 0,-0.13488 -0.0551,-0.263885 -0.15238,-0.35728 -0.09732,-0.0934 -0.228601,-0.143315 -0.363359,-0.137673 -1.733666,0.07258 -3.44632,0.226071 -5.134949,0.455727 -0.233307,0.03173 -0.41111,0.22282 -0.426704,0.457764 z M 67.162521,100.95016 c -0.01859,-0.25875 -0.23381,-0.45957 -0.493232,-0.45957 H 48.125366 c -0.135452,0 -0.26495,0.0555 -0.358417,0.15358 -0.09347,0.098 -0.143002,0.23016 -0.136437,0.36545 0.07837,1.61488 0.227623,3.2111 0.442108,4.78671 0.03176,0.23329 0.222836,0.41106 0.457756,0.42665 l 9.190976,0.6099 c 0.223316,0.0148 0.408306,0.17732 0.452289,0.39676 1.129818,5.63713 3.311985,10.89002 6.349148,15.54124 0.121269,0.18571 0.104332,0.42975 -0.04177,0.59663 l -6.086307,6.95144 c -0.154198,0.17612 -0.163697,0.4352 -0.02337,0.62255 3.100807,4.14018 6.668182,7.69687 10.678139,10.74537 0.187027,0.14219 0.448593,0.13355 0.625358,-0.0212 l 6.917603,-6.05667 c 0.168373,-0.14741 0.414077,-0.16333 0.600341,-0.0393 4.628296,3.08241 9.865471,5.31907 15.492524,6.4992 0.217117,0.0455 0.377754,0.23009 0.39244,0.45144 l 0.610993,9.20745 c 0.01548,0.23319 0.191978,0.42418 0.423317,0.45729 1.816505,0.25995 3.662552,0.42751 5.532249,0.50339 0.134659,0.005 0.265694,-0.0443 0.362934,-0.13756 0.0972,-0.0933 0.15251,-0.22229 0.15251,-0.35705 V 133.6635 c 0,-0.26168 -0.203195,-0.4774 -0.464365,-0.49361 -17.37133,-1.07834 -31.287948,-14.89377 -32.53286,-32.21973 z"
         id="path78" />
      <g
         id="g90">
        <path
           class="st4"
           d="m 88.360901,96.846779 c 0.01604,-0.07673 0.08368,-0.131699 0.162071,-0.131699 0.07838,0 0.146034,0.05497 0.162071,0.131699 l 2.121575,10.150821 c 0.155288,0.74298 0.735809,1.32349 1.47879,1.47878 l 10.150812,2.12158 c 0.0767,0.016 0.1317,0.0837 0.1317,0.16207 0,0.0784 -0.055,0.14604 -0.1317,0.16207 l -10.150812,2.12158 c -0.742981,0.15529 -1.323502,0.73581 -1.47879,1.47879 l -2.121575,10.15081 c -0.01604,0.0767 -0.08369,0.1317 -0.162071,0.1317 -0.07839,0 -0.146034,-0.055 -0.162071,-0.1317 l -2.121582,-10.15081 c -0.155289,-0.74298 -0.735802,-1.3235 -1.478783,-1.47879 L 74.609718,110.9221 c -0.07673,-0.016 -0.131698,-0.0837 -0.131698,-0.16207 0,-0.0784 0.05497,-0.14603 0.131698,-0.16207 l 10.150818,-2.12158 c 0.742981,-0.15529 1.323494,-0.7358 1.478783,-1.47878 z"
           id="path80" />
        <path
           class="st4"
           d="m 115.08571,70.362732 c 0.016,-0.07673 0.0837,-0.131699 0.16207,-0.131699 0.0784,0 0.14603,0.05497 0.16207,0.131699 l 2.12158,10.150818 c 0.15529,0.742981 0.7358,1.323494 1.47879,1.478782 l 10.15081,2.121582 c 0.0767,0.01604 0.13169,0.08368 0.13169,0.162072 0,0.07838 -0.055,0.146034 -0.13169,0.162071 l -10.15081,2.121574 c -0.74299,0.155289 -1.3235,0.735802 -1.47879,1.478791 l -2.12158,10.15081 c -0.016,0.07673 -0.0837,0.131698 -0.16207,0.131698 -0.0784,0 -0.14603,-0.05497 -0.16207,-0.131698 l -2.12158,-10.15081 c -0.15528,-0.742989 -0.7358,-1.323502 -1.47879,-1.478791 l -10.15081,-2.121574 c -0.0767,-0.01604 -0.13169,-0.08369 -0.13169,-0.162071 0,-0.07839 0.055,-0.146035 0.13169,-0.162072 l 10.15081,-2.121582 c 0.74299,-0.155288 1.32351,-0.735801 1.47879,-1.478782 z"
           id="path82" />
        <path
           class="st4"
           d="m 95.097157,71.79948 c 0.008,-0.03836 0.04184,-0.06585 0.08104,-0.06585 0.03919,0 0.07301,0.02749 0.08103,0.06585 l 1.083687,5.184974 c 0.07921,0.378945 0.375282,0.675019 0.754226,0.75422 l 5.18498,1.083694 c 0.0384,0.008 0.0658,0.04184 0.0658,0.08103 0,0.0392 -0.0275,0.07302 -0.0658,0.08104 l -5.18498,1.083687 c -0.378944,0.0792 -0.675018,0.375282 -0.754226,0.754227 l -1.083687,5.184963 c -0.008,0.0384 -0.04184,0.0659 -0.08103,0.0659 -0.0392,0 -0.07302,-0.0275 -0.08104,-0.0659 L 94.01347,80.822352 c -0.0792,-0.378945 -0.375282,-0.675026 -0.754227,-0.754227 l -5.184974,-1.083687 c -0.03836,-0.008 -0.06585,-0.04184 -0.06585,-0.08104 0,-0.03919 0.02749,-0.07301 0.06585,-0.08103 l 5.184974,-1.083695 c 0.378945,-0.0792 0.675026,-0.375274 0.754227,-0.754219 z"
           id="path84" />
        <path
           class="st4"
           d="m 122.32991,99.373843 c 0.008,-0.0384 0.0418,-0.0658 0.081,-0.0658 0.0392,0 0.073,0.0275 0.081,0.0658 l 0.91014,4.354627 c 0.0674,0.32248 0.31937,0.57444 0.64184,0.64184 l 4.35463,0.91014 c 0.0384,0.008 0.0658,0.0418 0.0658,0.081 0,0.0392 -0.0275,0.073 -0.0658,0.081 l -4.35463,0.91014 c -0.32247,0.0674 -0.57444,0.31937 -0.64184,0.64184 l -0.91014,4.35463 c -0.008,0.0384 -0.0418,0.0658 -0.081,0.0658 -0.0392,0 -0.073,-0.0275 -0.081,-0.0658 l -0.91014,-4.35463 c -0.0674,-0.32247 -0.31936,-0.57444 -0.64184,-0.64184 l -4.35462,-0.91014 c -0.0384,-0.008 -0.0658,-0.0418 -0.0658,-0.081 0,-0.0392 0.0275,-0.073 0.0658,-0.081 l 4.35462,-0.91014 c 0.32248,-0.0674 0.57444,-0.31936 0.64184,-0.64184 z"
           id="path86" />
        <path
           class="st4"
           d="m 81.62723,84.926907 c 0.008,-0.03836 0.04184,-0.06585 0.08103,-0.06585 0.03919,0 0.07302,0.02749 0.08104,0.06585 l 0.696479,3.332351 c 0.05287,0.252968 0.250519,0.450615 0.503487,0.503487 l 3.332352,0.69648 c 0.03836,0.008 0.06585,0.04184 0.06585,0.08104 0,0.03919 -0.02749,0.07301 -0.06585,0.08103 l -3.332352,0.69648 c -0.252968,0.05287 -0.450615,0.250519 -0.503487,0.503486 L 81.7893,94.153613 c -0.008,0.03837 -0.04185,0.06585 -0.08104,0.06585 -0.03919,0 -0.07301,-0.02748 -0.08103,-0.06585 l -0.69648,-3.332352 c -0.05287,-0.252967 -0.250526,-0.450614 -0.503486,-0.503486 l -3.332352,-0.69648 c -0.03837,-0.008 -0.06585,-0.04184 -0.06585,-0.08103 0,-0.0392 0.02748,-0.07302 0.06585,-0.08104 l 3.332352,-0.69648 c 0.25296,-0.05287 0.450615,-0.250519 0.503486,-0.503487 z"
           id="path88" />
        <path
           class="st4"
           d="m 112.31842,111.3827 c 0.008,-0.0384 0.0418,-0.0658 0.081,-0.0658 0.0392,0 0.073,0.0275 0.081,0.0658 l 1.08369,5.18497 c 0.0792,0.37895 0.37528,0.67502 0.75423,0.75422 l 5.18498,1.0837 c 0.0384,0.008 0.0658,0.0418 0.0658,0.081 0,0.0392 -0.0275,0.073 -0.0658,0.081 l -5.18498,1.08369 c -0.37895,0.0792 -0.67502,0.37528 -0.75423,0.75422 l -1.08369,5.18497 c -0.008,0.0384 -0.0418,0.0659 -0.081,0.0659 -0.0392,0 -0.073,-0.0275 -0.081,-0.0659 l -1.08368,-5.18497 c -0.0792,-0.37894 -0.37529,-0.67502 -0.75423,-0.75422 l -5.18498,-1.08369 c -0.0384,-0.008 -0.0658,-0.0418 -0.0658,-0.081 0,-0.0392 0.0275,-0.073 0.0658,-0.081 l 5.18498,-1.0837 c 0.37894,-0.0792 0.67502,-0.37527 0.75423,-0.75422 z"
           id="path336" />
      </g>
    </g>
  </g>
  <g
     inkscape:groupmode="layer"
     id="layer1"
     inkscape:label="TextHeader">
    <g
       aria-label="CITADEL"
       transform="translate(-10.477387,37.383548)"
       id="text432"
       style="font-size:37.3333px;white-space:pre;shape-inside:url(#rect434);display:inline;fill:#f5f5f5">
      <path
         d="M 223.21528,60.11499 V 56.232327 H 202.0473 c -2.24,0 -3.28533,-0.858666 -3.28533,-2.426665 V 40.141674 c 0,-1.567999 1.04533,-2.426665 3.28533,-2.426665 h 21.16798 V 33.832346 H 202.0473 c -5.97333,0 -8.25066,2.575998 -8.25066,6.346661 v 13.589322 c 0,3.770664 2.27733,6.346661 8.25066,6.346661 z"
         style="font-family:Pirulen;-inkscape-font-specification:Pirulen"
         id="path517" />
      <path
         d="M 232.54862,60.11499 V 33.832346 h -4.96533 V 60.11499 Z"
         style="font-family:Pirulen;-inkscape-font-specification:Pirulen"
         id="path519" />
      <path
         d="M 254.76196,60.11499 V 37.715009 h 13.40266 v -3.882663 h -32.14397 v 3.882663 h 13.77598 V 60.11499 Z"
         style="font-family:Pirulen;-inkscape-font-specification:Pirulen"
         id="path521" />
      <path
         d="M 300.60732,60.11499 283.24733,33.832346 H 279.626 L 262.15401,60.11499 h 5.52533 l 13.77599,-21.167982 13.55199,21.167982 z"
         style="font-family:Pirulen;-inkscape-font-specification:Pirulen"
         id="path523" />
      <path
         id="path525"
         style="font-family:Pirulen;-inkscape-font-specification:Pirulen"
         d="M 303.03403 33.833249 L 303.03403 60.114499 L 307.98911 60.114499 L 307.98911 33.833249 L 303.03403 33.833249 z M 313.05551 33.833249 L 313.05551 37.714108 L 327.11411 37.714108 C 330.8101 37.714108 331.85629 38.572926 331.85629 41.596921 L 331.85629 52.573483 C 331.85629 55.373478 330.8101 56.231686 327.11411 56.231686 L 313.05551 56.231686 L 313.05551 60.114499 L 327.11411 60.114499 C 334.54343 60.114499 336.82114 57.538584 336.82114 52.610593 L 336.82114 41.596921 C 336.82114 36.407597 334.54343 33.833249 327.11411 33.833249 L 313.05551 33.833249 z " />
      <path
         d="m 368.51664,60.11499 v -3.882663 h -22.06398 v -8.063993 h 20.94398 V 44.28567 h -20.94398 v -6.570661 h 22.06398 V 33.832346 H 341.48733 V 60.11499 Z"
         style="font-family:Pirulen;-inkscape-font-specification:Pirulen"
         id="path527" />
      <path
         d="M 399.05528,60.11499 V 56.232327 H 377.73797 V 33.832346 H 372.7353 V 60.11499 Z"
         style="font-family:Pirulen;-inkscape-font-specification:Pirulen"
         id="path529" />
    </g>
  </g>
  <g
     inkscape:groupmode="layer"
     id="layer2"
     inkscape:label="TextSub">
    <g
       aria-label="STATION XIV"
       transform="translate(-12.341441,5.7050559)"
       id="text415"
       style="font-weight:300;font-size:21.3333px;font-family:Trueno;-inkscape-font-specification:'Trueno Light';white-space:pre;shape-inside:url(#rect417);display:inline;fill:#f5f5f5">
      <path
         d="m 216.59558,115.48425 c 3.41333,0 4.71466,-1.472 4.71466,-3.62666 v -1.856 c 0,-2.15466 -1.30133,-3.62666 -4.71466,-3.62666 h -8.83198 c -1.28,0 -1.87734,-0.49066 -1.87734,-1.38666 v -0.91733 c 0,-0.896 0.59734,-1.38667 1.87734,-1.38667 h 12.71464 v -2.21866 H 207.7636 c -3.41333,0 -4.71466,1.472 -4.71466,3.62666 v 0.87466 c 0,2.15467 1.30133,3.62666 4.71466,3.62666 h 8.83198 c 1.28,0 1.87733,0.49067 1.87733,1.38667 v 1.89866 c 0,0.896 -0.59733,1.38667 -1.87733,1.38667 H 203.5396 v 2.21866 z"
         style="font-weight:normal;font-family:Pirulen;-inkscape-font-specification:Pirulen"
         id="path548" />
      <path
         d="m 232.95821,115.48425 v -12.79998 h 7.65866 v -2.21866 h -18.36798 v 2.21866 h 7.87199 v 12.79998 z"
         style="font-weight:normal;font-family:Pirulen;-inkscape-font-specification:Pirulen"
         id="path550" />
      <path
         d="m 259.15553,115.48425 -9.91998,-15.01864 h -2.06933 l -9.98398,15.01864 h 3.15732 l 7.87199,-12.09598 7.74399,12.09598 z"
         style="font-weight:normal;font-family:Pirulen;-inkscape-font-specification:Pirulen"
         id="path552" />
      <path
         d="m 266.66486,115.48425 v -12.79998 h 7.65866 v -2.21866 h -18.36797 v 2.21866 h 7.87199 v 12.79998 z"
         style="font-weight:normal;font-family:Pirulen;-inkscape-font-specification:Pirulen"
         id="path554" />
      <path
         d="m 279.1662,115.48425 v -15.01864 h -2.83733 v 15.01864 z"
         style="font-weight:normal;font-family:Pirulen;-inkscape-font-specification:Pirulen"
         id="path556" />
      <path
         id="path558"
         style="font-weight:normal;font-family:Pirulen;-inkscape-font-specification:Pirulen"
         d="M 286.65394 100.46487 C 283.24062 100.46487 281.9391 101.93716 281.9391 104.09182 L 281.9391 111.85744 C 281.9391 114.0121 283.24062 115.4844 286.65394 115.4844 L 290.17933 115.4844 L 290.17933 113.26565 L 286.65394 113.26565 C 285.37395 113.26565 284.77699 112.77493 284.77699 111.87893 L 284.77699 104.07033 C 284.77699 103.17434 285.37395 102.68362 286.65394 102.68362 L 290.17933 102.68362 L 290.17933 100.46487 L 286.65394 100.46487 z M 293.06214 100.46487 L 293.06214 102.68362 L 296.57386 102.68362 C 297.85386 102.68362 298.45082 103.17434 298.45082 104.07033 L 298.45082 111.87893 C 298.45082 112.77493 297.85386 113.26565 296.57386 113.26565 L 293.06214 113.26565 L 293.06214 115.4844 L 296.57386 115.4844 C 299.98719 115.4844 301.28871 114.0121 301.28871 111.85744 L 301.28871 104.09182 C 301.28871 101.93716 299.98719 100.46487 296.57386 100.46487 L 293.06214 100.46487 z " />
      <path
         d="m 323.83816,115.48425 v -15.01864 h -2.47467 v 11.15731 l -14.95464,-11.15731 h -2.45333 v 15.01864 h 2.47466 V 103.7936 l 16.02131,11.69065 z"
         style="font-weight:normal;font-family:Pirulen;-inkscape-font-specification:Pirulen"
         id="path560" />
      <path
         d="m 356.88345,115.48425 -8.55466,-7.61599 8.51199,-7.40265 h -3.64799 l -6.67733,6.01599 -6.67732,-6.01599 h -3.69066 l 8.57599,7.50932 -8.57599,7.50932 h 3.71199 l 6.65599,-5.99466 6.69866,5.99466 z"
         style="font-weight:normal;font-family:Pirulen;-inkscape-font-specification:Pirulen"
         id="path562" />
      <path
         d="m 361.47011,115.48425 v -15.01864 h -2.83733 v 15.01864 z"
         style="font-weight:normal;font-family:Pirulen;-inkscape-font-specification:Pirulen"
         id="path564" />
      <path
         d="m 375.01677,115.48425 9.91998,-15.01864 h -3.13599 l -7.76532,12.09598 -7.85066,-12.09598 h -3.22132 l 9.98398,15.01864 z"
         style="font-weight:normal;font-family:Pirulen;-inkscape-font-specification:Pirulen"
         id="path566" />
    </g>
  </g>
</svg>
